<svg width="125" height="34" viewBox="0 0 125 34" fill="none" xmlns="http://www.w3.org/2000/svg">
<path d="M9.5893 27.7505H24.8828C25.0062 27.7505 25.0062 27.8738 24.8828 27.8738C23.0328 28.6138 20.5661 30.9572 20.5661 30.9572C18.8394 32.4372 17.4827 33.4239 14.646 33.4239H0.0925012C-0.0308337 33.4239 -0.0308337 33.3006 0.0925012 33.3006C1.69586 32.4372 4.03922 30.0939 4.03922 30.0939C5.0259 29.1072 6.99926 27.7505 9.5893 27.7505Z" fill="#0A55A0"/>
<path d="M109.614 27.7505H124.908C125.031 27.7505 125.031 27.8738 124.908 27.8738C123.181 28.6138 120.714 30.9572 120.714 30.9572C118.987 32.4372 117.631 33.4239 114.794 33.4239H100.117C99.9938 33.4239 99.9938 33.3006 100.117 33.3006C101.721 32.4372 104.064 30.0939 104.064 30.0939C105.174 29.1072 107.147 27.7505 109.614 27.7505Z" fill="#0A55A0"/>
<path d="M34.6262 27.7505H49.9198C50.0431 27.7505 50.0431 27.8738 49.9198 27.8738C48.1931 28.6138 45.7264 30.9572 45.7264 30.9572C43.9997 32.4372 42.643 33.4239 39.8063 33.4239H25.2528C25.1294 33.4239 25.1294 33.3006 25.2528 33.3006C26.8561 32.4372 29.1995 30.0939 29.1995 30.0939C30.0628 29.1072 32.0362 27.7505 34.6262 27.7505Z" fill="#0A55A0"/>
<path d="M59.5399 27.7505H74.8335C74.9568 27.7505 74.9568 27.8738 74.8335 27.8738C73.1068 28.6138 70.6401 30.9572 70.6401 30.9572C68.9134 32.4372 67.5567 33.4239 64.72 33.4239H50.1665C50.0431 33.4239 50.0431 33.3006 50.1665 33.3006C51.7698 32.4372 54.1132 30.0939 54.1132 30.0939C55.0999 29.1072 57.0732 27.7505 59.5399 27.7505Z" fill="#0A55A0"/>
<path d="M84.5769 27.7505H99.8705C99.9938 27.7505 99.9938 27.8738 99.8705 27.8738C98.1438 28.6138 95.6771 30.9572 95.6771 30.9572C93.9504 32.4372 92.5937 33.4239 89.757 33.4239H75.2035C75.0801 33.4239 75.0801 33.3006 75.2035 33.3006C76.8068 32.4372 79.1502 30.0939 79.1502 30.0939C80.1369 29.1072 82.1102 27.7505 84.5769 27.7505Z" fill="#0A55A0"/>
<path d="M88.7703 0.123291C79.1502 0.123291 72.8601 4.68669 72.8601 11.7168C72.8601 18.1302 78.6569 22.4469 87.4136 22.4469C90.2503 22.4469 92.717 22.0769 95.6771 21.3369V15.9102C93.5804 18.1302 91.1137 18.9935 88.4003 18.9935C83.2202 18.9935 79.7669 15.7868 79.7669 11.1001C79.7669 6.53671 83.4669 3.20667 88.5237 3.20667C91.3604 3.20667 93.5804 4.19335 95.3071 5.92004V0.739966C93.4571 0.246626 91.1137 0.123291 88.7703 0.123291Z" fill="#E52922"/>
<path d="M16.6194 3.82336C20.1961 3.82336 24.3895 4.44004 26.2395 5.92006V0.73999H0.83252V5.92006C2.68254 4.56338 6.38259 3.9467 10.4526 3.9467V18.0069C10.4526 20.1036 10.3293 20.5969 9.34263 21.7069H17.4827C16.6194 20.5969 16.3727 19.9802 16.3727 18.0069V3.82336H16.6194Z" fill="#E52922"/>
<path d="M42.8897 9.00344C41.4096 9.49677 38.8196 9.62011 37.4629 9.62011H35.3662V4.07003H38.2029C40.793 4.07003 45.233 4.56338 46.8364 6.0434V0.73999H28.4595C29.3228 1.85001 29.4462 2.46668 29.4462 4.44004V18.0069C29.4462 20.1036 29.3228 20.7203 28.4595 21.7069H48.0697V16.6502C45.3564 18.6236 40.2996 18.6236 38.2029 18.5002H35.3662V12.7035H37.4629C38.9429 12.7035 41.4096 12.8268 42.8897 13.3202V9.00344Z" fill="#E52922"/>
<path d="M70.1467 1.48002C67.31 0.616675 63.3633 0 60.5266 0C55.2232 0 50.0431 1.60335 50.0431 6.90676C50.0431 16.0335 66.0766 11.2235 66.0766 16.7736C66.0766 18.6236 63.2399 19.3636 61.0199 19.3636C56.9499 19.3636 53.9898 18.7469 50.4131 16.6502V21.2136C53.1265 22.077 56.7032 22.5703 60.7732 22.5703C66.3233 22.5703 71.5034 21.0903 71.5034 15.7869C71.5034 6.16675 55.4698 10.4835 55.4698 5.79674C55.4698 3.94672 58.0599 3.20671 60.2799 3.20671C64.1033 3.20671 68.1733 4.31672 70.3934 6.41342V1.48002H70.1467Z" fill="#E52922"/>
<path d="M103.324 11.3468C103.324 6.90676 106.161 3.33004 110.477 3.33004C114.794 3.33004 117.631 6.90676 117.631 11.3468C117.754 15.6635 114.917 19.2403 110.601 19.2403C106.161 19.2403 103.324 15.6635 103.324 11.3468ZM124.168 11.1001C124.168 4.44006 118.987 0 111.217 0C102.831 0.123335 97.0338 4.81006 97.0338 11.5935C97.0338 18.1302 102.337 22.5703 110.107 22.5703C118.371 22.5703 124.168 17.8836 124.168 11.1001Z" fill="#E52922"/>
</svg>
